<?xml version="1.0" encoding="UTF-8"?>
<svg id="_레이어_1" data-name="레이어_1" xmlns="http://www.w3.org/2000/svg" xmlns:xlink="http://www.w3.org/1999/xlink" version="1.1" viewBox="0 0 1300 90">
  <!-- Generator: Adobe Illustrator 29.1.0, SVG Export Plug-In . SVG Version: 2.1.0 Build 142)  -->
  <defs>
    <style>
      .st0, .st1 {
        fill: none;
      }

      .st1, .st2 {
        stroke: #231815;
        stroke-linecap: round;
        stroke-linejoin: round;
        stroke-width: 7px;
      }

      .st2 {
        fill: #fff;
      }

      .st3 {
        fill: #ffffbd;
      }

      .st4 {
        clip-path: url(#clippath);
      }
    </style>
    <clipPath id="clippath">
      <path class="st0" d="M50.03,50.58c.17,32.21,73.46,31.92,109.17,31.92s125.49-7.74,193.85-7.74,188.75-.97,218.33-1.93c29.59-.97,105.09-4.84,168.34-1.93,63.26,2.9,145.89,1.93,189.77,1.93s83.66,1.93,104.06,1.93,112.23-1.93,155.08,1.93,63.26-13.54,61.21-33.86-19.38-26.12-83.66-26.12-66.32-1.93-118.35,0c-52.03,1.93-143.85-6.77-187.73-8.71-43.87-1.93-185.68,1.93-238.74,5.8-53.05,3.87-84.68.97-136.71,0-52.03-.97-96.92,1.93-185.68,1.93s-142.83,6.77-168.34,6.77-80.77-4.91-80.6,28.05Z"/>
    </clipPath>
  </defs>
  <path class="st2" d="M50.03,50.58c.17,32.21,73.46,31.92,109.17,31.92s125.49-7.74,193.85-7.74,188.75-.97,218.33-1.93c29.59-.97,105.09-4.84,168.34-1.93,63.26,2.9,145.89,1.93,189.77,1.93s83.66,1.93,104.06,1.93,112.23-1.93,155.08,1.93,63.26-13.54,61.21-33.86-19.38-26.12-83.66-26.12-66.32-1.93-118.35,0c-52.03,1.93-143.85-6.77-187.73-8.71-43.87-1.93-185.68,1.93-238.74,5.8-53.05,3.87-84.68.97-136.71,0-52.03-.97-96.92,1.93-185.68,1.93s-142.83,6.77-168.34,6.77-80.77-4.91-80.6,28.05Z"/>
  <g class="st4">
    <rect class="st3" x="54.8" y="-46.55" width="450" height="210.88"/>
  </g>
  <path class="st1" d="M50.03,50.58c.17,32.21,73.46,31.92,109.17,31.92s125.49-7.74,193.85-7.74,188.75-.97,218.33-1.93c29.59-.97,105.09-4.84,168.34-1.93,63.26,2.9,145.89,1.93,189.77,1.93s83.66,1.93,104.06,1.93,112.23-1.93,155.08,1.93,63.26-13.54,61.21-33.86-19.38-26.12-83.66-26.12-66.32-1.93-118.35,0c-52.03,1.93-143.85-6.77-187.73-8.71-43.87-1.93-185.68,1.93-238.74,5.8-53.05,3.87-84.68.97-136.71,0-52.03-.97-96.92,1.93-185.68,1.93s-142.83,6.77-168.34,6.77-80.77-4.91-80.6,28.05Z"/>
</svg>